<svg xmlns="http://www.w3.org/2000/svg" width="150" height="150" viewBox="0 0 150 150" shape-rendering="geometricPrecision" version="1.1"><desc>Created by http://guilds.gw2w2w.com/</desc><rect x="0" y="0" width="150" height="150" fill="none" stroke="none"/><g transform="matrix(0.5859375,0,0,0.5859375,0,0)">
<g fill="rgb(26,24,27)" stroke="rgb(26,24,27)" stroke-width=".05%" stroke-opacity="50%" opacity="0.7"><path d=" M 91.22 20.07 C 102.82 16.52 114.73 12.89 127.01 13.55 C 143.01 12.82 158.97 16.26 173.74 22.28 C 185.04 28.31 196.45 34.45 206.36 42.63 C 216.81 51.45 224.66 62.90 231.04 74.90 C 237.39 86.42 240.79 99.32 243.08 112.19 C 243.94 121.75 243.79 131.40 243.27 140.98 C 241.83 149.46 239.73 157.84 237.05 166.02 C 229.80 186.52 216.79 205.10 199.39 218.24 C 193.08 222.42 186.69 226.52 179.92 229.95 C 170.48 235.43 159.78 238.15 149.19 240.37 C 142.56 241.83 135.75 241.75 129.01 241.76 C 122.30 241.70 115.48 241.91 108.94 240.16 C 101.22 238.68 93.83 235.98 86.28 233.88 C 81.09 230.91 75.43 228.80 70.43 225.49 C 66.83 223.11 63.13 220.89 59.33 218.85 C 55.58 214.86 51.19 211.52 47.46 207.51 C 42.90 202.37 37.71 197.66 34.53 191.46 C 30.27 184.96 27.00 177.90 22.92 171.29 C 20.25 161.55 16.81 151.97 15.49 141.91 C 14.23 128.54 14.37 114.87 17.73 101.81 C 19.83 93.73 22.05 85.54 26.33 78.29 C 29.92 71.10 34.24 64.32 38.71 57.65 C 51.92 40.22 70.55 27.11 91.22 20.07 M 114.62 19.41 C 113.90 23.35 113.34 27.32 113.00 31.32 C 115.96 30.90 118.92 30.51 121.88 30.13 C 120.23 26.54 118.55 22.96 116.84 19.40 C 116.28 19.40 115.18 19.41 114.62 19.41 M 118.54 18.80 C 121.71 22.85 125.38 26.47 129.24 29.85 C 133.52 26.62 137.37 22.87 140.83 18.79 C 133.41 18.38 125.96 18.25 118.54 18.80 M 138.19 30.12 C 141.13 30.56 144.07 31.00 147.01 31.47 C 146.65 27.08 145.98 22.73 144.88 18.47 C 141.60 21.68 139.94 25.98 138.19 30.12 M 91.07 25.69 C 95.20 28.43 99.55 30.82 104.04 32.92 C 106.93 28.81 109.60 24.54 111.85 20.05 C 104.68 20.88 97.73 22.96 91.07 25.69 M 147.17 20.04 C 149.29 24.61 151.87 28.94 154.84 33.01 C 159.62 31.01 164.23 28.57 168.25 25.26 C 161.35 23.06 154.41 20.82 147.17 20.04 M 87.48 25.55 C 87.34 30.09 87.53 34.63 87.81 39.16 C 90.64 38.17 93.47 37.15 96.30 36.13 C 94.23 31.95 91.42 28.16 87.48 25.55 M 163.23 35.84 C 166.03 37.20 168.83 38.55 171.64 39.89 C 172.35 35.35 172.76 30.76 172.53 26.16 C 168.75 28.67 165.82 32.15 163.23 35.84 M 65.52 39.12 C 70.35 40.99 75.40 42.17 80.52 42.91 C 82.57 37.97 84.06 32.81 84.85 27.52 C 78.09 30.81 71.46 34.46 65.52 39.12 M 174.04 27.59 C 174.68 33.20 176.20 38.67 178.59 43.78 C 183.91 42.84 189.16 41.54 194.27 39.79 C 188.32 34.52 181.16 30.96 174.04 27.59 M 113.45 35.70 C 101.26 38.60 88.44 41.48 78.43 49.46 C 70.32 55.20 63.06 62.08 56.59 69.60 C 49.09 78.50 42.67 88.63 40.01 100.08 C 34.67 116.56 34.03 134.62 38.80 151.32 C 41.15 159.96 43.65 168.82 48.90 176.22 C 53.27 182.38 57.74 188.54 63.25 193.75 C 68.72 199.05 75.03 203.36 81.14 207.86 C 88.87 213.51 98.33 215.77 107.39 218.31 C 128.16 223.87 150.53 220.76 170.01 212.15 C 182.06 205.76 192.58 196.70 201.49 186.44 C 206.52 180.03 211.93 173.66 214.96 166.00 C 219.66 153.22 223.53 139.80 222.79 126.03 C 223.32 114.02 219.70 102.42 215.96 91.17 C 211.22 80.04 203.95 70.04 195.09 61.83 C 184.64 50.40 170.85 41.95 155.79 38.25 C 142.18 33.82 127.49 33.39 113.45 35.70 M 62.84 40.51 C 63.59 44.58 64.87 48.53 66.47 52.35 C 68.77 50.63 71.08 48.92 73.38 47.19 C 70.03 44.72 66.52 42.47 62.84 40.51 M 186.26 46.78 C 186.28 47.21 186.30 48.08 186.31 48.52 C 188.55 49.90 190.80 51.28 193.03 52.68 C 194.61 48.74 196.03 44.72 197.01 40.59 C 193.10 42.03 189.49 44.15 186.26 46.78 M 44.97 58.50 C 49.85 58.65 54.73 58.54 59.60 58.33 C 60.33 53.41 60.55 48.44 60.22 43.48 C 54.67 47.99 49.73 53.18 44.97 58.50 M 198.66 42.91 C 198.51 46.60 198.26 50.31 198.50 54.02 C 198.65 55.48 198.61 57.21 199.94 58.18 C 204.59 58.82 209.30 58.37 213.97 58.32 C 209.21 52.85 204.08 47.72 198.66 42.91 M 41.98 60.97 C 44.10 64.77 46.58 68.33 49.17 71.82 C 50.80 69.41 52.41 66.99 54.04 64.58 C 50.26 62.69 46.21 61.36 41.98 60.97 M 204.95 64.61 C 206.60 66.88 208.23 69.15 209.88 71.42 C 212.26 68.01 214.53 64.52 216.56 60.88 C 212.58 61.74 208.70 63.02 204.95 64.61 M 40.72 63.79 C 36.41 69.95 32.76 76.52 28.99 83.02 C 34.41 82.66 39.62 81.09 44.65 79.14 C 43.89 73.90 42.63 68.74 40.72 63.79 M 214.02 78.32 C 218.90 80.48 224.03 82.06 229.31 82.87 C 226.44 75.78 222.22 69.36 217.95 63.05 C 216.12 67.99 214.80 73.10 214.02 78.32 M 217.09 85.27 C 218.63 87.99 220.19 90.71 221.77 93.41 C 225.20 90.71 228.47 87.79 231.44 84.58 C 226.65 84.06 221.81 84.31 217.09 85.27 M 27.44 84.51 C 29.79 88.54 33.46 91.39 37.20 94.05 C 38.55 91.23 39.88 88.40 41.20 85.57 C 36.63 85.04 32.04 84.56 27.44 84.51 M 231.66 88.52 C 228.74 92.73 226.31 97.26 224.23 101.94 C 228.31 104.79 232.56 107.39 237.04 109.58 C 236.46 102.30 234.43 95.25 231.66 88.52 M 21.16 110.17 C 25.75 108.08 30.09 105.51 34.22 102.62 C 32.46 97.80 30.04 93.26 26.97 89.15 C 24.07 95.86 22.39 102.99 21.16 110.17 M 226.20 109.25 C 226.40 112.26 226.61 115.27 226.82 118.28 C 230.48 116.92 234.10 115.44 237.63 113.77 C 237.67 113.24 237.73 112.17 237.76 111.64 C 233.91 110.80 230.06 110.01 226.20 109.25 M 19.66 112.94 C 23.40 115.30 27.37 117.27 31.44 119.02 C 31.88 116.03 32.34 113.05 32.77 110.07 C 28.29 110.45 23.88 111.39 19.66 112.94 M 228.08 127.07 C 230.18 131.84 234.63 134.94 238.39 138.34 C 238.84 130.90 238.84 123.42 238.32 115.98 C 234.70 119.46 230.55 122.61 228.08 127.07 M 20.48 138.80 C 24.26 135.41 27.77 131.75 31.11 127.93 C 27.92 123.85 24.32 120.12 20.53 116.61 C 19.37 123.96 19.40 131.44 20.48 138.80 M 226.95 135.01 C 226.70 137.99 226.45 140.96 226.19 143.94 C 230.38 143.40 234.56 142.77 238.69 141.88 C 235.81 138.10 231.15 136.74 226.95 135.01 M 19.63 141.42 C 23.80 143.18 28.21 144.24 32.71 144.72 C 32.27 141.61 31.80 138.49 31.35 135.38 C 27.36 137.21 23.39 139.13 19.63 141.42 M 225.28 152.42 C 225.37 157.31 228.82 161.40 231.67 165.11 C 234.71 158.83 236.24 151.93 237.01 145.03 C 232.99 147.29 228.64 149.18 225.28 152.42 M 21.13 145.31 C 22.43 152.42 24.31 159.42 26.87 166.19 C 29.87 162.11 32.39 157.71 34.08 152.93 C 29.89 150.19 25.58 147.62 21.13 145.31 M 28.29 167.33 C 28.23 167.96 28.10 169.21 28.04 169.84 C 32.15 169.74 36.25 169.55 40.35 169.28 C 39.30 166.42 38.25 163.56 37.19 160.71 C 34.16 162.83 31.18 165.02 28.29 167.33 M 217.95 168.50 C 222.58 169.17 227.25 169.61 231.93 169.50 C 229.15 165.75 225.53 162.78 221.73 160.13 C 220.46 162.91 219.21 165.71 217.95 168.50 M 214.18 176.55 C 215.13 181.56 216.42 186.49 218.17 191.28 C 222.88 185.41 226.29 178.67 229.66 171.98 C 224.27 172.62 219.05 174.19 214.18 176.55 M 28.95 172.24 C 31.95 179.16 35.37 186.07 40.54 191.66 C 42.45 186.87 43.64 181.84 44.58 176.78 C 39.49 174.89 34.28 173.30 28.95 172.24 M 41.72 194.83 C 45.98 193.79 50.13 192.37 54.24 190.87 C 52.42 188.34 50.60 185.82 48.79 183.28 C 45.93 186.80 43.48 190.64 41.72 194.83 M 204.93 190.32 C 208.80 192.02 212.86 193.27 217.03 193.97 C 214.93 190.29 212.53 186.80 210.02 183.38 C 208.32 185.69 206.62 188.01 204.93 190.32 M 44.66 196.81 C 48.89 202.54 54.43 207.05 59.78 211.66 C 60.24 206.79 60.13 201.91 59.58 197.06 C 54.62 196.60 49.63 196.49 44.66 196.81 M 198.70 211.57 C 204.27 207.14 209.18 201.98 213.79 196.58 C 208.98 196.45 204.18 196.52 199.37 196.69 C 198.66 201.61 198.45 206.59 198.70 211.57 M 66.51 202.72 C 64.83 206.66 63.56 210.77 62.77 214.99 C 66.47 212.92 69.99 210.54 73.37 207.98 C 71.09 206.21 68.80 204.46 66.51 202.72 M 185.65 207.70 C 189.05 210.47 192.75 212.89 196.87 214.44 C 195.77 210.43 194.34 206.54 192.82 202.68 C 190.44 204.36 188.04 206.02 185.65 207.70 M 65.74 216.33 C 71.60 220.99 78.22 224.57 84.87 227.96 C 83.98 222.94 82.69 218.00 81.10 213.16 C 75.83 213.32 70.69 214.58 65.74 216.33 M 177.97 212.22 C 176.08 217.28 174.60 222.50 174.09 227.91 C 180.62 223.99 187.39 220.45 193.52 215.90 C 188.47 214.16 183.26 212.92 177.97 212.22 M 163.12 219.74 C 165.61 222.64 168.07 225.57 170.49 228.54 C 171.05 228.56 172.17 228.61 172.73 228.63 C 172.64 224.21 172.31 219.81 171.62 215.45 C 168.78 216.86 165.95 218.29 163.12 219.74 M 87.42 229.75 C 91.31 227.22 94.11 223.50 96.71 219.74 C 93.89 218.51 91.07 217.31 88.25 216.11 C 87.54 220.62 87.22 225.18 87.42 229.75 M 91.00 230.03 C 97.80 232.40 104.75 234.38 111.87 235.54 C 109.64 231.14 107.10 226.93 104.42 222.80 C 99.52 224.34 95.07 226.93 91.00 230.03 M 147.05 235.67 C 154.31 234.39 161.45 232.45 168.39 229.94 C 164.21 226.93 159.67 224.48 155.01 222.32 C 151.90 226.48 149.23 230.95 147.05 235.67 M 138.18 225.37 C 139.87 228.87 141.53 232.39 143.20 235.91 C 143.74 235.82 144.82 235.65 145.37 235.56 C 146.08 231.77 146.65 227.95 147.02 224.11 C 144.07 224.52 141.12 224.93 138.18 225.37 M 112.98 224.13 C 113.35 228.02 113.90 231.89 114.55 235.75 C 115.15 235.75 116.36 235.75 116.96 235.75 C 118.58 232.32 120.18 228.90 121.82 225.49 C 118.88 225.02 115.93 224.56 112.98 224.13 M 118.51 236.51 C 125.89 236.89 133.27 236.91 140.64 236.44 C 137.29 232.43 133.47 228.82 129.25 225.73 C 125.36 229.01 121.73 232.57 118.51 236.51 Z"/></g>
</g><g transform="matrix(0.5859375,0,0,0.5859375,0,0)">
<g fill="rgb(189,186,185)" stroke="rgb(189,186,185)" stroke-width=".05%" stroke-opacity="50%"><path d=" M 139.31 56.26 C 141.16 52.54 145.19 50.98 148.92 49.86 C 151.97 50.79 155.25 51.24 158.07 52.88 C 161.08 54.49 163.30 57.14 165.56 59.62 C 166.19 59.59 167.45 59.54 168.08 59.52 C 170.24 60.85 172.12 62.56 173.53 64.68 C 170.94 64.40 168.38 63.92 165.79 63.78 C 163.97 65.56 162.66 67.88 160.50 69.29 C 158.04 70.49 155.27 70.79 152.65 71.54 C 152.62 72.03 152.55 73.01 152.52 73.50 C 154.08 77.80 155.06 82.37 155.34 86.93 C 154.52 93.67 153.18 101.15 147.77 105.83 C 141.25 112.47 133.77 118.19 125.47 122.45 C 122.47 124.10 119.18 125.28 116.45 127.40 C 112.10 130.47 109.37 135.34 104.66 137.98 C 104.42 133.06 105.54 128.18 107.57 123.73 C 109.63 119.31 113.72 116.45 116.61 112.63 C 120.21 109.26 123.71 105.79 126.65 101.81 C 131.75 96.70 133.92 89.19 132.45 82.14 C 130.64 78.30 127.85 75.05 125.19 71.78 C 130.93 67.68 136.03 62.57 139.31 56.26 Z"/>
<path d=" M 76.18 52.29 C 76.69 52.40 77.70 52.62 78.20 52.73 C 83.09 55.91 89.00 56.60 94.50 58.15 C 99.64 59.03 104.19 61.68 108.86 63.86 C 113.22 65.90 117.47 68.95 119.44 73.51 C 123.29 81.29 125.37 91.06 121.09 99.11 C 119.26 102.28 117.29 105.43 114.84 108.16 C 114.27 108.28 113.13 108.51 112.56 108.63 C 112.69 103.99 111.79 99.37 109.78 95.17 C 106.62 88.07 101.10 82.57 95.71 77.14 C 93.09 75.09 89.94 73.82 87.36 71.70 C 81.07 67.14 78.03 59.57 76.18 52.29 Z"/>
<path d=" M 197.07 52.49 C 197.26 52.70 197.65 53.12 197.84 53.33 C 197.64 68.51 186.60 80.54 175.15 89.16 C 169.72 93.50 163.02 95.68 157.30 99.53 C 160.07 94.45 160.27 88.49 160.23 82.84 C 159.68 79.83 158.99 76.84 158.18 73.89 C 161.27 73.73 164.41 73.86 167.46 73.21 C 173.32 71.24 178.92 68.56 184.16 65.29 C 189.72 62.56 193.95 57.74 197.07 52.49 Z"/></g>
<g fill="rgb(135,0,10)" stroke="rgb(135,0,10)" stroke-width=".05%" stroke-opacity="50%"><path d=" M 47.40 27.79 C 55.34 34.42 63.33 41.07 70.50 48.54 C 72.71 54.20 72.37 60.88 76.12 66.00 C 80.37 73.93 88.77 77.91 95.22 83.72 C 98.18 86.43 100.82 89.50 103.22 92.71 C 106.95 97.76 108.45 104.03 109.24 110.15 C 108.75 109.81 107.76 109.14 107.27 108.80 C 105.86 104.38 103.26 100.42 99.90 97.23 C 92.09 89.47 80.70 87.47 71.93 81.11 C 67.59 77.80 62.96 74.70 59.50 70.42 C 55.30 64.53 51.60 58.13 49.86 51.05 C 47.73 43.49 47.64 35.59 47.40 27.79 Z"/>
<path d=" M 200.34 56.36 C 207.29 47.98 214.57 39.89 221.49 31.49 C 221.51 37.42 222.20 43.41 221.16 49.30 C 219.20 57.18 218.19 65.56 213.35 72.36 C 204.41 84.23 192.35 93.55 179.12 100.23 C 175.94 101.91 172.35 102.46 168.81 102.75 C 177.02 94.04 188.66 88.63 194.77 77.97 C 198.09 71.28 200.04 63.83 200.34 56.36 Z"/>
<path d=" M 91.68 124.68 C 96.03 120.68 101.36 118.01 106.53 115.26 C 101.85 122.51 97.29 131.20 99.39 140.08 C 99.87 142.60 100.61 145.05 101.35 147.50 C 108.65 142.40 114.16 133.06 124.11 133.11 C 122.58 135.81 120.53 138.24 119.44 141.17 C 118.21 146.47 119.12 152.77 123.72 156.23 C 129.98 160.79 136.45 165.14 143.38 168.62 C 150.31 172.33 156.62 177.22 161.79 183.15 C 166.07 188.21 168.22 194.58 171.00 200.48 C 173.19 191.88 170.16 182.93 166.66 175.09 C 175.22 181.17 177.49 192.28 177.86 202.14 C 177.48 213.04 170.28 222.68 161.23 228.28 C 161.35 221.99 161.30 215.37 158.14 209.73 C 153.74 199.88 144.17 193.82 134.89 189.15 C 128.34 185.49 121.64 182.08 114.65 179.34 C 105.71 175.66 97.65 169.94 91.31 162.64 C 84.76 155.61 82.32 145.27 84.03 135.92 C 84.62 131.17 88.43 127.81 91.68 124.68 Z"/>
<path d=" M 127.31 136.27 C 128.86 139.11 130.92 141.77 134.01 143.04 C 143.01 147.33 152.27 152.83 156.92 162.05 C 158.33 165.03 159.27 168.20 160.20 171.36 C 157.48 167.66 154.75 163.82 150.87 161.25 C 144.17 156.22 135.18 154.82 129.33 148.61 C 126.10 145.31 126.73 140.42 127.31 136.27 Z"/>
<path d=" M 73.58 155.09 C 74.50 148.56 75.45 141.36 80.52 136.59 C 78.27 145.48 79.19 155.63 84.95 163.04 C 93.95 173.74 105.34 183.06 118.89 187.17 C 125.80 190.21 132.57 193.76 138.62 198.30 C 143.87 202.21 147.98 208.29 147.82 215.04 C 148.45 221.06 143.77 226.38 138.48 228.57 C 140.09 224.72 141.03 220.09 138.75 216.30 C 136.13 211.03 130.22 209.11 125.32 206.64 C 118.53 203.80 111.37 201.80 104.90 198.21 C 96.32 193.37 87.89 188.04 80.79 181.17 C 74.67 174.13 73.01 164.14 73.58 155.09 Z"/></g>


</g></svg>